PathFileType	4	(X/Y/Z)	Apose_0-50.trc
DataRate	CameraRate	NumFrames	NumMarkers	Units	OrigDataRate	OrigDataStartFrame	OrigNumFrames
30	30	7	22	m	30	40	50
Frame#	Time	Hip			RHip			RKnee			RAnkle			RBigToe			RSmallToe			RHeel			LHip			LKnee			LAnkle			LBigToe			LSmallToe			LHeel			Neck			Head			Nose			RShoulder			RElbow			RWrist			LShoulder			LElbow			LWrist		
		X1	Y1	Z1	X2	Y2	Z2	X3	Y3	Z3	X4	Y4	Z4	X5	Y5	Z5	X6	Y6	Z6	X7	Y7	Z7	X8	Y8	Z8	X9	Y9	Z9	X10	Y10	Z10	X11	Y11	Z11	X12	Y12	Z12	X13	Y13	Z13	X14	Y14	Z14	X15	Y15	Z15	X16	Y16	Z16	X17	Y17	Z17	X18	Y18	Z18	X19	Y19	Z19	X20	Y20	Z20	X21	Y21	Z21	X22	Y22	Z22
41	1.3666666666666667	0.040571535510485104	0.9228102883850623	0.35486305220505504	0.032838068219605956	0.8817250200783621	0.46159689577815105	0.006555294869438571	0.5088527142207223	0.49552525792497587	-0.0045126471121773905	0.11047005977489224	0.5141759050258493	0.20157377336136792	0.03663875746743765	0.5645468564898576	0.1512878647026083	0.03139730497223107	0.6273287551529019	-0.03805436536960422	0.036497391935619704	0.4996795648718442	0.03451904202356423	0.8819229057469905	0.24285368560324644	0.014554339767572741	0.5093144615172074	0.22190169928372863	0.00599325774480871	0.11598249431506885	0.20926263512482923	0.22183108344418728	0.047324520107589356	0.18745645816014106	0.1679149043180272	0.03493799887121273	0.12567337338636622	-0.050608133026133095	0.044931853432157054	0.20833112027381945	0.05607130991809565	1.5774368588983836	0.34389148000878955	0.24179344369013964	1.8012991680403039	0.29607066464219495	0.2954169801386621	1.6488998239643786	0.3299741883977328	0.022950185666456967	1.4911170543177426	0.525931076293375	0.08301321079659421	1.2350112548019128	0.7138311175877371	0.12938426859747054	1.043173725206448	0.8854345993993769	0.015350547229677252	1.4804062555744728	0.14649453450014555	0.02871194531946855	1.2247869962030435	0.0007065564172592752	0.0800283649193563	1.0186417433464894	-0.14747801055232984
42	1.4	0.04121955200351276	0.9230556117970848	0.35512565392207707	0.03277629416053572	0.8824500724341556	0.4619119913436262	0.006878447657124083	0.509154291107674	0.4956492273949845	-0.0035108077094641787	0.10966235438559829	0.5141954190997882	0.20214695457910034	0.03695705045443498	0.5645962876321895	0.1510565989979898	0.031431906225909835	0.6277050865388035	-0.03666329109498965	0.03580630209436903	0.49890591289804626	0.03497495331544246	0.8821622554955377	0.24302223840205028	0.014992537488779812	0.50978592594138	0.22210704580462243	0.006292298172691465	0.11636582469666655	0.2094303739276482	0.22146340746373439	0.04762533830595478	0.1875110349073235	0.16788087308441485	0.035389655382681594	0.1258729849165213	-0.05065264641030995	0.04505061300840374	0.20800701494972512	0.05738003478059023	1.5807998088682718	0.34506616595864925	0.24005648762929402	1.8051220283977758	0.2930133513860517	0.29567157980151815	1.654667047399884	0.3284609048469102	0.023104466904367522	1.4910617691605328	0.5257884145949571	0.08402356778244563	1.2350996472246016	0.713373997079264	0.1312657945122967	1.0426613579574715	0.8846880187549445	0.015604357153629435	1.4806914439654046	0.14677852290505233	0.028955761995967964	1.2246060233343508	0.0005342314370551949	0.07949383024773035	1.017725729781882	-0.14866277897149652
43	1.4333333333333331	0.04200894832965888	0.9230815507850152	0.3555180368739385	0.03268296304265619	0.8830960202122227	0.4623674365814248	0.007456419737781256	0.5093592192605635	0.49587338468565895	-0.0030013791403612705	0.1093580629052063	0.51448551205308	0.2017260423291884	0.036633411077242	0.5640993626021182	0.15050339884718475	0.03149740687222596	0.6280950408602951	-0.03537566808669167	0.035331499698530854	0.49824449394453135	0.0355318320630809	0.8821892656375719	0.24340938694517478	0.01565084576832156	0.5103234946164065	0.22262042006428723	0.0064508904499191826	0.11700372160138911	0.20947459697053944	0.22103111515176962	0.047799957918930845	0.18747492208409983	0.16762449764262632	0.035897324321795585	0.12601848482955647	-0.0498922712953877	0.04733888399358157	0.20672013964523273	0.05847634450650503	1.5849679851668823	0.34664026106128304	0.23788910255910672	1.8080875286818527	0.2915120510227718	0.2920068702402989	1.6581331649573228	0.32818998649020487	0.023119920789439925	1.4908916233135237	0.5258754972200214	0.08460614891479483	1.2351865853875106	0.7128976537280696	0.13338300209018344	1.0421779394836521	0.8838178685435814	0.015650947218978035	1.4809609494377	0.14705669318444337	0.029351378234862537	1.2244324486079168	0.0003781656454123502	0.07899724361177678	1.0167683268257768	-0.1499338317119345
44	1.4666666666666666	0.04282919279658228	0.9228761537789701	0.3559694030353924	0.03267282213336431	0.8835812362062119	0.4629295608340766	0.008329664536911134	0.509456859128812	0.49616822711894615	-0.0029113953073403084	0.10948748806672945	0.5149350824436874	0.20041345519548748	0.035956994905309146	0.5632195083922593	0.14965656449598158	0.031636639078335464	0.6283586555841223	-0.03447915973852715	0.03518196709828726	0.49791123497467027	0.03616102779048262	0.882004407262334	0.24395631285047242	0.016477598290565366	0.5109059579262089	0.22340467747200232	0.006353515442272677	0.11793452548767536	0.20927051858385792	0.2206625130899786	0.04791216478973648	0.18734691804099585	0.1672102560428169	0.03640666413118989	0.12614087323216744	-0.04877492840346857	0.05091383972697553	0.20494338683168864	0.05916904256765204	1.5890067045549436	0.3481972640666683	0.2341510290257378	1.8103973298955434	0.29251854573648955	0.2852266126490352	1.6597504434356032	0.32911068147792205	0.023072322806739348	1.4906085776428604	0.5261644695097983	0.0849782496869966	1.2352574777545424	0.7124875284764922	0.1356100524154436	1.0418177451826889	0.8829464991033737	0.015526816740835914	1.4811709517786142	0.14735623161648156	0.029889643032691038	1.2242599658398166	0.00022392604878394083	0.07893749256956813	1.0160049876212902	-0.15089693945832897
45	1.5	0.0435849047026589	0.9225019652531253	0.35638903665603944	0.03286762475926089	0.8838674155224296	0.4634941936987844	0.009367602919941782	0.5094522126126011	0.4964621823470246	-0.0030477729080084976	0.10986136306527587	0.5154084405253208	0.1987321335922199	0.03535609084703301	0.5623029082802216	0.14865369877142381	0.031835469956881156	0.6283905557616479	-0.034038554808917335	0.035257980666204974	0.4978963685262027	0.03679655300255339	0.8817236590245874	0.24452616296519644	0.017387181532277515	0.5114538163958902	0.22429235383620727	0.005928732489092181	0.11919702709910605	0.20880379650521685	0.2204451238202514	0.04803143473749045	0.187094293018124	0.16672292766195868	0.03680225937439218	0.12627973884523802	-0.04779983950571672	0.05454274831095945	0.20333704137651876	0.05922090357404433	1.59161945249528	0.3492168157392745	0.22890481353674758	1.8121665435974506	0.2956814255022369	0.2764146640431811	1.6600896306218231	0.3307960918343817	0.022999339337950828	1.4902747252212354	0.526592870843241	0.08528029817259927	1.2352380838369554	0.7121980773998677	0.13774027746749512	1.0416464690118503	0.8821739210830167	0.015278158091462879	1.4813048803041478	0.1477221198674943	0.030495627286015688	1.2240732892420234	7.221735480204132e-05	0.0794694505042015	1.0154956964149247	-0.15138756050405774
46	1.5333333333333334	0.04422251590077665	0.9220792964355297	0.3567108426471827	0.03336106252225802	0.8838741530994896	0.46389719167404825	0.010305343578249583	0.5093182932399221	0.49666990912898973	-0.0033748833325134083	0.11043859241802312	0.5158240398426939	0.19733831751318	0.03502776518763964	0.5616568912413573	0.14774188154678808	0.031997090273048756	0.6281813083699144	-0.03396856892145264	0.03535337719343107	0.49802060790167907	0.037390409820787646	0.8814623430566605	0.2449798112598431	0.018286879606467032	0.5118123573728319	0.22501769438684846	0.005219936836737026	0.12070598412143663	0.20824167666563315	0.22043265553471678	0.04817148902899426	0.1867098732758685	0.1662521083265822	0.03691601682465923	0.12647862102667992	-0.047132889380409354	0.05732131741149091	0.20240166799768328	0.05852292955812753	1.5918934869153563	0.34930635197069343	0.22351224064067415	1.8133981577468155	0.29912925984135463	0.26745078752221885	1.6598424522782813	0.3327732705366874	0.022944201840257306	1.4899333776473977	0.5271524193527403	0.08562633031374232	1.235015593629704	0.7120400946455528	0.13956988164711207	1.0416679912077127	0.8815213248010152	0.01495116940832283	1.481339134894535	0.14813706836277887	0.031092933984616034	1.2238539007827325	-0.00010446110677901238	0.08038707033228966	1.0151530720995297	-0.1515503269355922
47	1.5666666666666669	0.04471944556960009	0.9217414774725408	0.356907366588492	0.03419297613746955	0.883450928132991	0.463998726790739	0.010894273839258667	0.5089793753766844	0.49669468665284755	-0.004142551042019563	0.11147278659985431	0.5161834556400458	0.19687034730404346	0.03494516294286951	0.5615317732968536	0.14718986370627726	0.03198553475576514	0.627799623030868	-0.03410629300286053	0.03525303443529541	0.49805837595015173	0.03793588018289853	0.881253219298894	0.24526579477950747	0.019134870844839037	0.5117628665705024	0.22531633948630114	0.0043325072777876785	0.12222526611302303	0.20786523231619441	0.2206422050356758	0.04829108839201431	0.1862744156028334	0.16586094312198177	0.0365797814344015	0.12678573139204258	-0.04659333921146516	0.058925133991558715	0.20233138994471953	0.0571285613842921	1.5897788941299362	0.34833706069719167	0.22036966785531947	1.8140465509650971	0.2998380399540664	0.26115866570905144	1.6599251592211692	0.33447954391786894	0.023002042114626985	1.489557839627437	0.5279071043006319	0.08617506328102714	1.2344590184263002	0.7120169340701236	0.14093296209888337	1.0418557694475523	0.8809369074970433	0.01452920705457021	1.481238004689657	0.1485216254143992	0.03161481628312613	1.223581784348232	-0.0003943336947489818	0.0813462990994224	1.0148846948070056	-0.15165437720155206
